<svg xmlns="http://www.w3.org/2000/svg" width="55" height="55" fill="none" viewBox="0 0 55 55">
    <rect width="54" height="54" x=".5" y=".5" stroke="#6FD4D1" rx="27"/>
    <path fill="#6FD4D1" d="M37.444 43.111a.555.555 0 0 0 .556-.555V17c0-.012-.006-.023-.007-.035a.572.572 0 0 0-.029-.143c-.006-.018-.01-.035-.018-.053a.557.557 0 0 0-.11-.162l-4.444-4.445a.546.546 0 0 0-.163-.109c-.016-.007-.033-.012-.05-.017a.54.54 0 0 0-.148-.03c-.01 0-.02-.006-.031-.006H18.556a.555.555 0 0 0-.556.556v30c0 .307.249.555.556.555h18.888zm-1.34-26.667h-2.548v-2.547l2.547 2.547zM19.11 13.111h13.333V17c0 .307.25.556.556.556h3.889V42H19.11V13.111z"/>
    <path fill="#6FD4D1" d="M35.222 25.333H20.778a.555.555 0 1 0 0 1.112h14.444a.555.555 0 1 0 0-1.112zM35.222 28.667H20.778a.555.555 0 1 0 0 1.111h14.444a.555.555 0 1 0 0-1.11zM35.222 32H20.778a.555.555 0 1 0 0 1.112h14.444a.555.555 0 1 0 0-1.111zM20.778 23.11h6.666a.555.555 0 1 0 0-1.11h-6.666a.555.555 0 1 0 0 1.11z"/>
</svg>
