<svg width="55" height="55" viewBox="0 0 55 55" fill="none" xmlns="http://www.w3.org/2000/svg">
<rect x="0.5" y="0.5" width="54" height="54" rx="27" stroke="#6FD4D1"/>
<path d="M27.2 13.3633C25.4733 13.3633 24.0637 14.7443 24.0637 16.4359C24.0637 18.1275 25.4733 19.5086 27.2 19.5086C28.9267 19.5086 30.3364 18.1275 30.3364 16.4359C30.3364 14.7443 28.9267 13.3633 27.2 13.3633ZM27.2 14.5923C28.2534 14.5923 29.0818 15.404 29.0818 16.4359C29.0818 17.4679 28.2534 18.2795 27.2 18.2795C26.1466 18.2795 25.3182 17.4679 25.3182 16.4359C25.3182 15.404 26.1466 14.5923 27.2 14.5923ZM19.0455 15.2069C17.6663 15.2069 16.5364 16.3138 16.5364 17.665C16.5364 19.0161 17.6663 20.1231 19.0455 20.1231C20.4247 20.1231 21.5546 19.0161 21.5546 17.665C21.5546 16.3138 20.4247 15.2069 19.0455 15.2069ZM35.3546 15.2069C33.9754 15.2069 32.8455 16.3138 32.8455 17.665C32.8455 19.0161 33.9754 20.1231 35.3546 20.1231C36.7337 20.1231 37.8636 19.0161 37.8636 17.665C37.8636 16.3138 36.7337 15.2069 35.3546 15.2069ZM19.0455 16.4359C19.7513 16.4359 20.3 16.9735 20.3 17.665C20.3 18.3565 19.7513 18.894 19.0455 18.894C18.3396 18.894 17.7909 18.3565 17.7909 17.665C17.7909 16.9735 18.3396 16.4359 19.0455 16.4359ZM35.3546 16.4359C36.0604 16.4359 36.6091 16.9735 36.6091 17.665C36.6091 18.3565 36.0604 18.894 35.3546 18.894C34.6487 18.894 34.1 18.3565 34.1 17.665C34.1 16.9735 34.6487 16.4359 35.3546 16.4359ZM25.6318 20.7376C23.1801 20.7376 21.5546 22.4967 21.5546 24.4248V29.6483C21.5716 30.8486 22.0428 31.6576 22.6817 32.0392C23.175 32.3338 23.6834 32.399 24.0637 32.4137V39.788C24.059 40.1126 24.3595 40.4113 24.6909 40.4113C25.0224 40.4113 25.3229 40.1126 25.3182 39.788V24.4248C25.3259 24.0762 24.9761 23.7625 24.6223 23.8007C24.3141 23.8338 24.057 24.1211 24.0637 24.4248V31.175C23.7836 31.1553 23.518 31.1057 23.3286 30.9926C23.0683 30.8371 22.8246 30.5736 22.8091 29.6483C22.8091 27.9071 22.8091 26.1659 22.8091 24.4248C22.8091 23.1965 23.7026 22.1013 25.4162 22.0051C25.8106 22.3258 26.2703 22.7753 26.7296 23.2918C26.9642 23.5523 27.4359 23.5523 27.6705 23.2918C28.1298 22.7753 28.5894 22.3258 28.9838 22.0051C30.6974 22.1013 31.5909 23.1965 31.5909 24.4248C31.5909 26.1653 31.5909 27.9099 31.5909 29.6483C31.5754 30.5736 31.3317 30.8372 31.0715 30.9926C30.882 31.1057 30.6164 31.1554 30.3364 31.175V24.4248C30.344 24.0762 29.9943 23.7625 29.6405 23.8007C29.3323 23.8338 29.0752 24.1211 29.0818 24.4248V39.788C29.0771 40.1126 29.3777 40.4113 29.7091 40.4113C30.0405 40.4113 30.3411 40.1126 30.3364 39.788V32.4137C30.7166 32.3989 31.225 32.3338 31.7183 32.0392C32.3573 31.6576 32.8284 30.8487 32.8455 29.6483V24.4248C32.8455 22.4967 31.2199 20.7376 28.7682 20.7376C28.6358 20.7361 28.5033 20.7772 28.3958 20.8528C27.9813 21.1571 27.5911 21.6039 27.2 22.0243C26.8089 21.6039 26.4187 21.1571 26.0043 20.8528C25.8967 20.7772 25.7642 20.7362 25.6318 20.7376ZM20.5548 21.3426C20.437 21.3562 20.3233 21.4034 20.2314 21.477C19.7953 21.8109 19.4128 22.2411 19.0455 22.6292C18.6781 22.2411 18.2957 21.8109 17.8595 21.477C17.7506 21.396 17.614 21.3515 17.4773 21.3522C15.0255 21.3521 13.4 23.1113 13.4 25.0393V30.2628C13.4171 31.4632 13.8882 32.2722 14.5272 32.6537C15.0204 32.9483 15.5289 33.0135 15.9091 33.0282V39.788C15.9044 40.1126 16.205 40.4113 16.5364 40.4113C16.8678 40.4113 17.1683 40.1126 17.1637 39.788V25.0393C17.1713 24.6907 16.8216 24.377 16.4678 24.4152C16.1596 24.4484 15.9024 24.7356 15.9091 25.0393V31.7895C15.629 31.7699 15.3635 31.7202 15.174 31.6071C14.9137 31.4517 14.6701 31.1882 14.6546 30.2628C14.6546 28.5216 14.6546 26.7805 14.6546 25.0393C14.6546 23.811 15.5481 22.7159 17.2617 22.6196C17.6571 22.9642 18.1837 23.523 18.6044 23.9351C18.8363 24.1597 19.2546 24.1597 19.4865 23.9351C19.961 23.4703 20.6001 22.7498 20.9959 22.4468C21.2147 22.2873 21.3051 21.9785 21.2057 21.7297C21.1063 21.4809 20.826 21.3142 20.5548 21.3426ZM33.7668 21.3426C33.5089 21.3491 33.2648 21.5281 33.1858 21.7687C33.1068 22.0093 33.1985 22.2942 33.4041 22.4468C33.7999 22.7498 34.4391 23.4703 34.9135 23.9351C35.1454 24.1597 35.5637 24.1597 35.7956 23.9351C36.2163 23.523 36.7429 22.9642 37.1384 22.6196C38.8519 22.7159 39.7455 23.811 39.7455 25.0393C39.7455 26.7805 39.7455 28.5216 39.7455 30.2628C39.7299 31.1882 39.4863 31.4517 39.226 31.6071C39.0365 31.7202 38.771 31.7699 38.4909 31.7895V25.0393C38.4986 24.6907 38.1488 24.377 37.795 24.4152C37.4868 24.4484 37.2297 24.7356 37.2364 25.0393V39.788C37.2317 40.1126 37.5322 40.4113 37.8636 40.4113C38.1951 40.4113 38.4956 40.1126 38.4909 39.788V33.0282C38.8711 33.0134 39.3796 32.9483 39.8729 32.6537C40.5118 32.2722 40.9829 31.4632 41 30.2628V25.0393C41 23.1113 39.3745 21.3521 36.9227 21.3522C36.786 21.3515 36.6494 21.396 36.5405 21.477C36.1043 21.8109 35.7219 22.2411 35.3546 22.6292C34.9872 22.2411 34.6048 21.8109 34.1686 21.477C34.0558 21.3886 33.9111 21.3403 33.7668 21.3426ZM27.1314 30.5605C26.8232 30.5937 26.5661 30.8809 26.5727 31.1846V39.6631C26.5681 39.9878 26.8686 40.2864 27.2 40.2864C27.5314 40.2864 27.832 39.9878 27.8273 39.6631V31.1846C27.835 30.836 27.4852 30.5223 27.1314 30.5605ZM18.9769 31.175C18.6686 31.2082 18.4115 31.4954 18.4182 31.7991V39.788C18.4135 40.1126 18.714 40.4113 19.0455 40.4113C19.3769 40.4113 19.6774 40.1126 19.6727 39.788V31.7991C19.6804 31.4505 19.3306 31.1368 18.9769 31.175ZM35.2859 31.175C34.9777 31.2082 34.7206 31.4954 34.7273 31.7991V39.788C34.7226 40.1126 35.0231 40.4113 35.3546 40.4113C35.686 40.4113 35.9865 40.1126 35.9818 39.788V31.7991C35.9895 31.4505 35.6397 31.1368 35.2859 31.175ZM21.486 33.0186C21.1777 33.0518 20.9206 33.339 20.9273 33.6427V39.788C20.9226 40.1126 21.2231 40.4113 21.5546 40.4113C21.886 40.4113 22.1865 40.1126 22.1818 39.788V33.6427C22.1895 33.2941 21.8397 32.9804 21.486 33.0186ZM32.7769 33.0186C32.4686 33.0518 32.2115 33.339 32.2182 33.6427V39.788C32.2135 40.1126 32.514 40.4113 32.8455 40.4113C33.1769 40.4113 33.4774 40.1126 33.4727 39.788V33.6427C33.4804 33.2941 33.1306 32.9804 32.7769 33.0186Z" fill="#6FD4D1"/>
</svg>
