<svg width="198" height="202" viewBox="0 0 198 202" fill="none" xmlns="http://www.w3.org/2000/svg">
<path d="M91.6113 160.548H128.966V155.678H91.6113V160.548Z" fill="#6FD4D1"/>
<path d="M91.6113 160.548H128.966V155.678H91.6113V160.548Z" fill="url(#paint0_linear)"/>
<path d="M106.622 160.206H128.936V156.075H106.622V160.206Z" fill="white"/>
<path d="M96.4552 155.704H126.395V152.578H96.4552V155.704Z" fill="#6FD4D1"/>
<path d="M96.4552 155.704H126.395V152.578H96.4552V155.704Z" fill="url(#paint1_linear)"/>
<path d="M112.626 155.704H126.4V152.527H112.626V155.704Z" fill="white"/>
<path d="M91.7511 152.549H129.389V149.165H91.7511V152.549Z" fill="#6FD4D1"/>
<path d="M115.59 151.733H130.024V149.812H115.59V151.733Z" fill="white"/>
<path d="M97.1581 127.89C97.2047 130.606 99.3726 142.015 99.3769 144.735C99.3769 146.521 97.3614 146.479 96.1716 147.151C95.5491 147.501 94.6515 148.587 95.2654 149.077C96.9803 149.165 101.032 149.03 102.743 149.119C103.103 149.119 101.049 133.694 102.455 129.487C103.302 126.953 114.446 118.991 113.549 116.579C113.295 115.891 115.458 111.43 113.921 111.414C110.305 111.371 106.592 111.794 105.394 112.195C105.394 112.199 97.0862 123.882 97.1581 127.89Z" fill="#3F3D56"/>
<path d="M112.071 111.477C111.479 111.457 110.897 111.637 110.42 111.988C109.742 112.622 109.92 113.724 110.157 114.619C110.898 117.441 112.029 123.912 114.29 131.337C116.652 139.096 120.146 147.755 120.366 148.397C120.463 148.688 120.434 148.891 120.683 149.072C120.933 149.254 127.268 149.165 127.323 149.072C127.323 149.072 127.848 147.674 125.832 146.897C125.311 146.694 123.893 147.045 123.656 146.323C121.619 140.131 120.777 126.632 121.005 124.131C121.293 120.989 122.377 112.959 120.328 111.283C118.084 111.19 114.324 111.308 112.071 111.477Z" fill="#3F3D56"/>
<path d="M93.1907 26.901H91.4673V4.8235L93.1907 3.53949V26.901Z" fill="#6FD4D1"/>
<path d="M93.1907 26.901H91.4673V4.93755L93.1907 3.65353V26.901Z" fill="url(#paint2_linear)"/>
<path d="M18.5247 194.896H67.2985V185.257H18.5247V194.896Z" fill="#6FD4D1"/>
<path d="M18.5247 194.896H67.2985V185.257H18.5247V194.896Z" fill="url(#paint3_linear)"/>
<path d="M18.6136 193.079H36.1474V186.769H18.6136V193.079Z" fill="white"/>
<path d="M16.5049 185.27H72.9596V173.257H16.5049V185.27Z" fill="#6FD4D1"/>
<path d="M16.5049 185.27H72.9596V173.257H16.5049V185.27Z" fill="url(#paint4_linear)"/>
<path d="M42.5157 183.669H72.858V174.85H42.5157V183.669Z" fill="white"/>
<path d="M18.7152 173.321H66.9343V164.599H18.7152V173.321Z" fill="#6FD4D1"/>
<path d="M18.7152 173.321H66.9343V164.599H18.7152V173.321Z" fill="url(#paint5_linear)"/>
<path d="M37.8538 172.485H66.9343V165.541H37.8538V172.485Z" fill="white"/>
<path d="M24.9691 164.616H63.619V158.069H24.9691V164.616Z" fill="#6FD4D1"/>
<path d="M24.9691 164.616H63.619V158.069H24.9691V164.616Z" fill="url(#paint6_linear)"/>
<path d="M45.8353 164.122H63.619V158.432H45.8353V164.122Z" fill="white"/>
<path d="M18.8973 158.069H67.4848V152.012H18.8973V158.069Z" fill="#6FD4D1"/>
<path d="M18.8973 158.069H67.4848V152.012H18.8973V158.069Z" fill="url(#paint7_linear)"/>
<path d="M49.6673 156.616H67.4636V153.174H49.6673V156.616Z" fill="white"/>
<path d="M22.9536 151.961H60.8329V144.477H22.9536V151.961Z" fill="#6FD4D1"/>
<path d="M22.9536 151.961H60.8329V144.477H22.9536V151.961Z" fill="url(#paint8_linear)"/>
<path d="M38.0825 151.961H60.8371V144.477H38.0825V151.961Z" fill="url(#paint9_linear)"/>
<path d="M23.0214 150.711H36.6386V145.812H23.0214V150.711Z" fill="white"/>
<path d="M21.387 144.498H65.2322V137.014H21.387V144.498Z" fill="#6FD4D1"/>
<path d="M41.5841 143.848H63.9535V137.816H41.5841V143.848Z" fill="white"/>
<path d="M23.0976 136.984H60.5492V130.209H23.0976V136.984Z" fill="#6FD4D1"/>
<path d="M23.0976 136.984H60.5492V130.209H23.0976V136.984Z" fill="url(#paint10_linear)"/>
<path d="M38.1502 136.498H60.5195V130.754H38.1502V136.498Z" fill="white"/>
<path d="M27.9585 130.243H57.9748V125.893H27.9585V130.243Z" fill="#6FD4D1"/>
<path d="M27.9585 130.243H57.9748V125.893H27.9585V130.243Z" fill="url(#paint11_linear)"/>
<path d="M44.167 130.243H57.979V125.825H44.167V130.243Z" fill="white"/>
<path d="M23.2415 125.85H60.9768V121.145H23.2415V125.85Z" fill="#6FD4D1"/>
<path d="M47.1394 124.723H61.612V122.049H47.1394V124.723Z" fill="white"/>
<path d="M186.674 185.257H137.9V194.896H186.674V185.257Z" fill="#6FD4D1"/>
<path d="M186.674 185.257H137.9V194.896H186.674V185.257Z" fill="url(#paint12_linear)"/>
<path d="M186.589 186.769H169.055V193.079H186.589V186.769Z" fill="white"/>
<path d="M188.693 173.258H132.239V185.27H188.693V173.258Z" fill="#6FD4D1"/>
<path d="M188.693 173.258H132.239V185.27H188.693V173.258Z" fill="url(#paint13_linear)"/>
<path d="M162.687 174.85H132.344V183.669H162.687V174.85Z" fill="white"/>
<path d="M186.487 164.599H138.268V173.321H186.487V164.599Z" fill="#6FD4D1"/>
<path d="M186.487 164.599H138.268V173.321H186.487V164.599Z" fill="url(#paint14_linear)"/>
<path d="M167.344 165.541H138.264V172.485H167.344V165.541Z" fill="white"/>
<path d="M180.229 158.069H141.579V164.616H180.229V158.069Z" fill="#6FD4D1"/>
<path d="M180.229 158.069H141.579V164.616H180.229V158.069Z" fill="url(#paint15_linear)"/>
<path d="M159.363 158.428H141.579V164.117H159.363V158.428Z" fill="white"/>
<path d="M186.301 152.012H137.713V158.069H186.301V152.012Z" fill="#6FD4D1"/>
<path d="M186.301 152.012H137.713V158.069H186.301V152.012Z" fill="url(#paint16_linear)"/>
<path d="M155.531 153.174H137.734V156.616H155.531V153.174Z" fill="white"/>
<path d="M182.245 144.473H144.365V151.957H182.245V144.473Z" fill="#6FD4D1"/>
<path d="M182.245 144.473H144.365V151.957H182.245V144.473Z" fill="url(#paint17_linear)"/>
<path d="M167.12 144.473H144.365V151.957H167.12V144.473Z" fill="url(#paint18_linear)"/>
<path d="M182.177 145.812H168.56V150.711H182.177V145.812Z" fill="white"/>
<path d="M183.815 137.014H139.97V144.498H183.815V137.014Z" fill="#6FD4D1"/>
<path d="M163.618 137.816H141.249V143.848H163.618V137.816Z" fill="white"/>
<path d="M182.101 130.209H144.649V136.984H182.101V130.209Z" fill="#6FD4D1"/>
<path d="M182.101 130.209H144.649V136.984H182.101V130.209Z" fill="url(#paint19_linear)"/>
<path d="M167.048 130.758H144.679V136.503H167.048V130.758Z" fill="white"/>
<path d="M177.24 125.893H147.223V130.243H177.24V125.893Z" fill="#6FD4D1"/>
<path d="M177.24 125.893H147.223V130.243H177.24V125.893Z" fill="url(#paint20_linear)"/>
<path d="M161.035 125.821H147.223V130.239H161.035V125.821Z" fill="white"/>
<path d="M181.957 121.149H144.221V125.855H181.957V121.149Z" fill="#6FD4D1"/>
<path d="M158.059 122.049H143.586V124.723H158.059V122.049Z" fill="white"/>
<path d="M103.238 113.551C103.446 115.291 109.933 113.242 110.521 113.204C111.821 113.12 120.793 113.627 121.954 113.057C124.693 111.76 117.575 88.7491 115.848 87.7143C114.23 86.747 112.257 86.5485 110.369 86.595C106.414 86.6963 103.128 88.6646 102.023 92.6602C101.566 94.3117 102.358 96.0097 102.794 97.5851C103.442 99.8533 102.959 111.211 103.238 113.551Z" fill="#6FD4D1"/>
<path d="M105.66 85.8516C105.127 84.745 103.662 84.4366 102.879 83.4863C102.154 82.6204 102.133 81.3744 102.171 80.2551C102.222 78.7684 102.332 77.2225 103.09 75.9385C103.848 74.6545 105.453 73.7548 106.85 74.249C107.495 74.5361 108.064 74.9701 108.51 75.5161C109.105 76.0857 109.58 76.7677 109.907 77.5224C110.331 78.6797 110.127 79.9721 109.776 81.1506C109.425 82.329 108.929 83.4821 108.794 84.7069C108.701 85.5897 108.794 86.4978 108.607 87.3679C108.421 88.238 107.854 89.125 106.977 89.2939C105.453 89.6022 106.037 86.6794 105.66 85.8516Z" fill="url(#paint21_linear)"/>
<path d="M104.657 95.9421C104.687 96.5292 104.678 97.2092 104.234 97.5978C103.997 97.7821 103.711 97.8937 103.412 97.9188C101.765 98.1511 84.4809 86.0417 82.4062 77.2225C82.3299 76.9057 83.5325 76.0145 84.4767 75.7231C84.9382 75.5837 85.3235 75.5837 85.5056 75.8582C92.2338 86.6837 103.713 87.9381 104.919 88.4492C105.128 88.5608 105.301 88.7283 105.419 88.9328C105.537 89.1372 105.596 89.3706 105.588 89.6065C105.783 91.3509 104.593 94.5229 104.657 95.9421Z" fill="#6FD4D1"/>
<path d="M114.514 52.7502C114.506 57.9956 112.542 63.0504 109.003 66.9304C105.465 70.8103 100.605 73.2378 95.3708 73.7402C90.1366 74.2426 84.9022 72.784 80.6869 69.6482C76.4715 66.5125 73.5769 61.9241 72.5665 56.7764C71.5562 51.6288 72.5024 46.2902 75.221 41.8003C77.9396 37.3103 82.236 33.9902 87.2737 32.4864C92.3114 30.9827 97.7298 31.4028 102.474 33.6652C107.218 35.9275 110.949 39.87 112.939 44.7251C113.982 47.2725 114.517 49.9985 114.514 52.7502Z" fill="#6FD4D1"/>
<path d="M103.704 60.5261C103.887 61.5193 103.999 62.5243 104.039 63.5334C104.013 65.489 103.128 67.3348 101.922 68.8891C100.655 70.3817 99.2277 71.7315 97.6662 72.9143C99.2075 73.2522 100.812 72.7834 102.243 72.1287C105.781 70.5039 108.703 67.7903 110.581 64.3866C110.753 64.1406 110.83 63.8403 110.797 63.5418C110.73 63.3412 110.616 63.1589 110.466 63.0097C109.395 61.6919 108.946 59.9812 108.116 58.4987C107.528 57.4554 105.779 55.3394 104.305 56.0067C102.934 56.6191 103.543 59.335 103.704 60.5261Z" fill="url(#paint22_linear)"/>
<path d="M109.272 84.859C109.431 84.8714 109.591 84.8456 109.739 84.7839C109.886 84.7222 110.016 84.6263 110.119 84.5042C110.335 84.2761 110.492 83.9974 110.695 83.7608C111.161 83.3192 111.669 82.9232 112.211 82.5782C112.913 82.02 113.429 81.2633 113.693 80.4072C113.777 80.1934 113.781 79.9566 113.705 79.7398C113.591 79.55 113.44 79.3849 113.261 79.2541C112.749 78.7515 112.672 77.987 112.583 77.2478C112.494 76.5087 112.317 75.74 111.698 75.3598C111.795 74.7401 111.737 74.1059 111.529 73.514C111.417 73.2216 111.204 72.9785 110.929 72.8284C110.653 72.6782 110.333 72.6308 110.026 72.6946C109.957 72.7259 109.882 72.7431 109.806 72.7453C109.611 72.7453 109.539 72.4877 109.484 72.2976C109.399 71.981 109.243 71.688 109.027 71.441C108.811 71.1941 108.541 70.9997 108.238 70.8729C107.935 70.7461 107.607 70.6902 107.279 70.7094C106.951 70.7287 106.632 70.8226 106.346 70.984C106.178 71.0935 106.003 71.1909 105.821 71.2755C105.398 71.4275 104.936 71.2966 104.492 71.3346C103.708 71.398 103.078 71.9766 102.54 72.5468C102.426 72.6916 102.281 72.8098 102.116 72.8932C101.963 72.9419 101.803 72.9634 101.642 72.9565C100.994 72.9565 100.219 73.1846 100.05 73.8013C99.9966 74.0387 100.013 74.2865 100.097 74.5151C100.272 75.0392 100.604 75.4969 101.049 75.8263C101.493 76.1557 102.029 76.3408 102.582 76.3566C103.111 76.3566 103.543 75.9892 104.018 75.7569C104.086 75.7154 104.162 75.6895 104.242 75.6808C104.339 75.6822 104.435 75.7053 104.521 75.7484C105.432 76.0905 106.44 75.9343 107.409 75.8793C107.618 75.8522 107.831 75.8724 108.032 75.9385C108.229 76.0308 108.397 76.1773 108.514 76.3608C109.281 77.3914 109.09 78.8148 108.866 80.082C109.004 80.1007 109.146 80.0917 109.281 80.0554C109.416 80.0191 109.543 79.9564 109.653 79.8708C109.743 80.0243 109.798 80.1951 109.815 80.3718C109.833 80.5484 109.812 80.7267 109.754 80.8946C109.696 81.0625 109.603 81.216 109.48 81.3447C109.358 81.4734 109.209 81.5743 109.044 81.6405C108.912 81.6667 108.788 81.7215 108.679 81.801C108.602 81.8877 108.552 81.9948 108.535 82.1094C108.468 82.5935 108.499 83.0862 108.625 83.5584C108.752 84.0306 108.972 84.4728 109.272 84.859V84.859Z" fill="#3F3D56"/>
<path d="M90.2733 60.3107C90.2352 61.6051 90.0025 62.8865 89.5831 64.112C89.1216 65.2905 88.3129 66.3591 88.1859 67.622C88.1266 68.2259 88.2367 68.8384 88.1859 69.4424C88.1832 69.7468 88.101 70.0453 87.9473 70.3082C87.7936 70.5712 87.5737 70.7896 87.3094 70.9418C86.999 71.0409 86.6657 71.044 86.3536 70.9505C86.0414 70.857 85.765 70.6714 85.5606 70.4181C85.1632 69.9057 84.8463 69.336 84.6206 68.7286C84.08 67.5608 83.3473 66.4915 82.4527 65.565C81.6348 64.8216 80.8547 64.0378 80.1155 63.2166C79.4337 62.3719 78.951 61.2399 79.1755 60.1544C79.3194 59.4617 79.7428 58.7859 79.5989 58.089C79.4788 57.7032 79.2942 57.3404 79.0527 57.0162C78.6946 56.3959 78.4953 55.6973 78.4724 54.9819C78.4495 54.2666 78.6037 53.5566 78.9214 52.9149C79.311 52.1462 79.9546 51.4282 79.8995 50.5665C79.8645 50.2622 79.7846 49.9648 79.6624 49.6838C79.3448 48.839 78.8537 47.8929 77.9687 47.8338C77.215 47.7789 76.6265 48.4209 75.9956 48.8348C75.3647 49.2487 74.2638 49.2572 74.1029 48.5307C73.8321 47.4171 73.6257 46.2889 73.4847 45.1517C75.4445 40.0695 79.2852 35.9314 84.2142 33.5913C84.8527 34.1397 85.3445 34.8379 85.6453 35.623C83.723 37.6799 83.6171 40.9026 81.8981 43.1243C81.3434 43.8466 80.6278 44.4421 80.1366 45.2066C79.6455 45.9711 79.4168 47.0017 79.9037 47.7662C80.7252 49.0671 82.7237 48.6109 84.1379 49.2572C85.0568 49.6795 85.7893 50.5623 86.797 50.6257C87.3348 50.6552 87.8768 50.4356 88.4018 50.5539C89.1513 50.7186 89.5747 51.5 89.8203 52.2433C90.6883 54.8198 90.485 57.6033 90.2733 60.3107Z" fill="url(#paint23_linear)"/>
<path d="M90.8661 23.522C92.6777 23.5277 94.4815 23.7604 96.235 24.2147C96.8447 24.3222 97.4121 24.5972 97.8737 25.0087C98.0978 25.2199 98.2373 25.5052 98.2661 25.8114C98.2949 26.1176 98.2111 26.4238 98.0303 26.6729C98.3709 26.6581 98.7087 26.7394 99.005 26.9074C99.3012 27.0755 99.544 27.3235 99.7054 27.623C99.8668 27.9224 99.9402 28.2612 99.9173 28.6005C99.8944 28.9397 99.776 29.2656 99.5758 29.5408C99.9903 29.6987 100.369 29.9373 100.69 30.2425C101.012 30.5478 101.269 30.9137 101.447 31.319C101.595 31.6079 101.668 31.9284 101.662 32.2524C101.657 32.5764 101.571 32.894 101.413 33.1774C100.842 34.0222 99.6012 33.9841 98.5808 33.8828C94.3699 33.4764 90.1208 33.7488 85.9967 34.6895C85.0737 34.9007 83.9008 35.0612 83.3546 34.2671C82.7406 33.397 83.5113 32.2482 84.2395 31.4753C83.5663 31.5555 83.0413 30.7699 83.1513 30.0983C83.3272 29.4376 83.7539 28.871 84.3412 28.5186C84.9219 28.172 85.4507 27.7455 85.912 27.2515C85.2303 27.1966 84.8535 26.3181 85.116 25.6887C85.7596 24.126 89.4518 23.5177 90.8661 23.522Z" fill="#6FD4D1"/>
<path d="M101.587 32.8057C101.549 32.9381 101.491 33.0635 101.413 33.1774C100.842 34.0222 99.6012 33.9842 98.5808 33.887C94.3702 33.4771 90.1208 33.7481 85.9967 34.6895C85.1033 34.888 83.9813 35.0485 83.4223 34.3643C83.3974 34.3411 83.3747 34.3157 83.3546 34.2883C82.7449 33.4182 83.5113 32.2651 84.2395 31.4922C83.5663 31.5724 83.0413 30.7868 83.1513 30.1152C83.3278 29.4537 83.7542 28.886 84.3412 28.5313C84.9214 28.1858 85.449 27.7591 85.9078 27.2642C85.2303 27.2093 84.8535 26.3308 85.116 25.7014C85.7681 24.1344 89.4518 23.5262 90.8661 23.5304C92.6792 23.5349 94.4846 23.7677 96.2393 24.2231C96.8479 24.3299 97.4142 24.605 97.8737 25.0172C98.0978 25.2284 98.2373 25.5136 98.2661 25.8198C98.2949 26.126 98.2111 26.4322 98.0304 26.6813C98.3712 26.6657 98.7096 26.7464 99.0065 26.9141C99.3035 27.0818 99.5469 27.3298 99.7088 27.6294C99.8707 27.9291 99.9445 28.2682 99.9218 28.6078C99.899 28.9475 99.7806 29.2738 99.5801 29.5492C100.413 29.8729 101.085 30.5121 101.447 31.3274C101.663 31.7894 101.713 32.3116 101.587 32.8057V32.8057Z" fill="url(#paint24_linear)"/>
<path d="M114.129 76.099C113.146 71.4909 109.471 67.8796 108.159 63.3518C108.104 63.1533 107.477 62.1649 107.583 61.9917C107.811 61.6369 110.547 60.0573 110.856 60.3276C114.722 63.6179 115.971 67.9937 118.168 72.5764C120.366 77.1591 121.179 90.0584 118.676 94.468C118.071 95.5408 117.618 91.2411 116.386 91.1608C113.329 90.9581 112.596 88.2929 113.121 85.9825C113.854 82.6627 114.849 79.5287 114.129 76.099Z" fill="#6FD4D1"/>
<path d="M112.939 44.7335C112.909 44.8307 112.884 44.932 112.859 45.0334C112.759 45.3457 112.576 45.625 112.329 45.8409C112.082 46.0568 111.78 46.2012 111.457 46.2583C110.808 46.361 110.146 46.341 109.505 46.1992C109.348 48.311 111.377 50.1821 110.932 52.2349C110.572 53.8779 108.781 54.8114 108.07 56.3403C107.833 56.8599 107.722 57.4343 107.439 57.9327C106.838 58.9844 105.601 59.4743 104.475 59.8883C104.22 60.0069 103.938 60.0578 103.658 60.0361C103.314 59.9454 103.007 59.7488 102.781 59.4743C101.742 58.533 100.829 57.4627 100.063 56.2897C99.2925 55.1046 99.0033 53.6714 99.254 52.2813C99.4403 51.4704 99.8638 50.7312 100.122 49.9414C100.38 49.1515 100.444 48.2181 99.9612 47.5423C99.741 47.234 99.4192 47.0059 99.2075 46.6976C99.0893 46.5484 99.0251 46.3639 99.0251 46.1738C99.0251 45.9837 99.0893 45.7992 99.2075 45.6501C99.3933 45.5097 99.6181 45.43 99.8511 45.422L102.98 44.9996C103.572 44.9754 104.144 44.7771 104.623 44.4294C105.046 44.0324 105.152 43.2214 104.657 42.9047C103.318 43.8112 101.799 44.4178 100.202 44.6828C99.6986 43.5382 99.1905 42.212 99.6986 41.0631C99.8945 40.6891 100.141 40.3437 100.431 40.0367C101.795 38.4317 103.157 36.8267 104.517 35.2217C104.599 35.1192 104.7 35.0332 104.814 34.9683C108.46 37.3174 111.296 40.7259 112.939 44.7335V44.7335Z" fill="url(#paint25_linear)"/>
<path d="M80.3907 72.399C80.651 73.6098 81.0517 74.7863 81.5847 75.9047C81.9693 76.3282 82.3854 76.7222 82.8296 77.0831C83.2149 77.421 83.9474 76.8255 84.3708 76.5002C85.3235 75.7653 84.8366 73.4634 85.2177 72.2765C84.519 71.8161 83.9813 72.2216 83.308 71.7232C82.8264 71.4302 82.4579 70.9838 82.2622 70.4561C82.2359 70.2863 82.1933 70.1194 82.1351 69.9577C82.0576 69.8147 81.9542 69.6873 81.8303 69.5817C81.6524 69.4128 81.1528 68.737 80.903 68.7961C80.6532 68.8553 80.4796 69.6409 80.4457 69.8732C80.2375 70.7003 80.2187 71.5636 80.3907 72.399Z" fill="url(#paint26_linear)"/>
<path d="M110.708 56.484C110.619 56.3024 110.445 56.0996 110.255 56.1714C110.161 56.2214 110.09 56.3042 110.056 56.4037L109.336 57.8144L108.12 55.6012C107.756 54.9381 107.312 54.2074 106.575 54.0258C106.533 54.0095 106.488 54.0034 106.443 54.0078C106.398 54.0122 106.355 54.027 106.317 54.0511C106.219 54.1314 106.253 54.2834 106.291 54.4059L106.592 55.2844C105.895 54.7373 105.047 54.4173 104.162 54.3679C104.081 54.3539 103.998 54.3581 103.919 54.38C103.84 54.4019 103.766 54.441 103.704 54.4946C103.556 54.6635 103.649 54.917 103.747 55.1197C104.077 55.773 104.43 56.4122 104.805 57.0373C104.687 56.7965 104.28 56.8895 104.17 57.1302C104.091 57.3872 104.117 57.6651 104.242 57.9031C104.92 59.6707 106.01 61.2518 107.422 62.5155C107.6 62.676 107.845 62.8365 108.057 62.7435C108.198 62.652 108.302 62.5147 108.353 62.355C108.647 61.7438 109.117 61.2346 109.704 60.8936C111.296 59.9686 111.529 58.1566 110.708 56.484Z" fill="url(#paint27_linear)"/>
<path d="M101.587 32.8057C101.549 32.938 101.491 33.0635 101.413 33.1774C100.842 34.0222 99.6012 33.9841 98.5808 33.887C94.3701 33.477 90.1208 33.748 85.9967 34.6895C85.1033 34.888 83.9812 35.0485 83.4223 34.3643C83.4336 34.2589 83.4669 34.1571 83.5202 34.0654C83.5734 33.9737 83.6454 33.8942 83.7314 33.8321C83.8481 33.7598 83.9752 33.7057 84.1083 33.6716C85.9188 33.0572 87.7748 32.5855 89.6593 32.2609C90.5623 32.1384 91.4711 32.0623 92.3819 32.0328C93.1356 32.0117 93.8935 32.0117 94.6514 32.0117C95.9669 32.0286 97.2823 32.1018 98.5977 32.2313C99.2456 32.2946 99.8976 32.3749 100.541 32.4678C100.855 32.5016 101.426 32.4847 101.587 32.8057Z" fill="url(#paint28_linear)"/>
<path d="M89.6932 27.1037H96.7135C97.1751 27.1535 97.6406 27.0559 98.0431 26.8249C98.1724 26.748 98.2681 26.6255 98.3112 26.4816C98.3543 26.3377 98.3417 26.1829 98.2759 26.0478C98.1732 25.9313 98.0373 25.8488 97.8864 25.8112C95.8667 25.0932 93.6522 25.1059 91.5351 25.2326C90.5336 25.2535 89.5384 25.3953 88.5711 25.6549C87.9614 25.8408 86.3566 26.4237 86.2677 27.167C86.7293 27.2811 87.4237 27.0995 87.9233 27.0826C88.4949 27.1037 89.0962 27.1037 89.6932 27.1037Z" fill="url(#paint29_linear)"/>
<path d="M89.5704 30.1405C90.6417 29.9927 91.7214 29.9462 92.8011 29.8998C94.715 29.8153 96.6119 29.7351 98.5469 29.7562C98.8354 29.785 99.1265 29.7414 99.3938 29.6295C99.5243 29.571 99.6292 29.4673 99.6892 29.3377C99.7491 29.208 99.76 29.0611 99.7198 28.9241C99.597 28.6369 99.2202 28.5778 98.9068 28.5609C96.284 28.4208 93.6549 28.4476 91.0354 28.6411C90.2596 28.6817 89.4881 28.7819 88.7278 28.941C87.3806 29.3063 86.0816 29.8295 84.8577 30.4996C84.5486 30.6516 83.9431 31.036 84.5063 31.2852C84.9297 31.4626 85.7088 31.0275 86.1068 30.9135C87.241 30.5721 88.3986 30.3137 89.5704 30.1405V30.1405Z" fill="url(#paint30_linear)"/>
<path d="M138.031 187.517H89.2571V197.155H138.031V187.517Z" fill="#6FD4D1"/>
<path d="M138.031 187.517H89.2571V197.155H138.031V187.517Z" fill="url(#paint31_linear)"/>
<path d="M137.942 189.029H120.408V195.339H137.942V189.029Z" fill="white"/>
<path d="M140.051 175.517H83.5959V187.529H140.051V175.517Z" fill="#6FD4D1"/>
<path d="M140.051 175.517H83.5959V187.529H140.051V175.517Z" fill="url(#paint32_linear)"/>
<path d="M114.04 177.11H83.6976V185.929H114.04V177.11Z" fill="white"/>
<path d="M137.845 166.859H89.6255V175.581H137.845V166.859Z" fill="#6FD4D1"/>
<path d="M137.845 166.859H89.6255V175.581H137.845V166.859Z" fill="url(#paint33_linear)"/>
<path d="M118.702 167.8H89.6212V174.744H118.702V167.8Z" fill="white"/>
<path d="M131.586 160.329H92.9366V166.875H131.586V160.329Z" fill="#6FD4D1"/>
<path d="M131.586 160.329H92.9366V166.875H131.586V160.329Z" fill="url(#paint34_linear)"/>
<path d="M110.72 160.688H92.9366V166.377H110.72V160.688Z" fill="white"/>
<path d="M105.593 89.5854C105.224 89.9782 104.534 90.0458 103.954 90.0078C98.729 89.691 94.0799 86.6288 90.1971 83.1146C88.5347 81.6154 86.9518 80.0308 85.4548 78.3672C84.9424 77.8012 84.0532 77.1718 84.1845 76.3355C84.2202 76.0982 84.3247 75.8765 84.4851 75.6978C84.9467 75.5584 85.332 75.5584 85.5141 75.8329C92.2422 86.6583 103.721 87.9128 104.928 88.4239C105.136 88.5364 105.309 88.7048 105.426 88.91C105.544 89.1153 105.601 89.3492 105.593 89.5854Z" fill="url(#paint35_linear)"/>
<defs>
<linearGradient id="paint0_linear" x1="19251.3" y1="1969.15" x2="19253.6" y2="2244.59" gradientUnits="userSpaceOnUse">
<stop stop-opacity="0"/>
<stop offset="0.99"/>
</linearGradient>
<linearGradient id="paint1_linear" x1="15528.2" y1="1324.69" x2="15528" y2="1197.54" gradientUnits="userSpaceOnUse">
<stop stop-opacity="0"/>
<stop offset="0.99"/>
</linearGradient>
<linearGradient id="paint2_linear" x1="466.927" y1="690.615" x2="1031.23" y2="2197.97" gradientUnits="userSpaceOnUse">
<stop stop-opacity="0"/>
<stop offset="0.99"/>
</linearGradient>
<linearGradient id="paint3_linear" x1="6358.64" y1="4463.15" x2="6355.3" y2="5271.49" gradientUnits="userSpaceOnUse">
<stop stop-opacity="0"/>
<stop offset="0.99"/>
</linearGradient>
<linearGradient id="paint4_linear" x1="7596.68" y1="5252.3" x2="7589.97" y2="5966.92" gradientUnits="userSpaceOnUse">
<stop stop-opacity="0"/>
<stop offset="0.99"/>
</linearGradient>
<linearGradient id="paint5_linear" x1="6734.19" y1="3676.69" x2="-1647.47" y2="1557.53" gradientUnits="userSpaceOnUse">
<stop stop-opacity="0"/>
<stop offset="0.99"/>
</linearGradient>
<linearGradient id="paint6_linear" x1="5170.81" y1="2688.41" x2="5169.94" y2="2512.94" gradientUnits="userSpaceOnUse">
<stop stop-opacity="0"/>
<stop offset="0.99"/>
</linearGradient>
<linearGradient id="paint7_linear" x1="6341.11" y1="2291.65" x2="6343" y2="2995.48" gradientUnits="userSpaceOnUse">
<stop stop-opacity="0"/>
<stop offset="0.99"/>
</linearGradient>
<linearGradient id="paint8_linear" x1="4847.26" y1="2812.6" x2="4848.11" y2="2496.7" gradientUnits="userSpaceOnUse">
<stop stop-opacity="0"/>
<stop offset="0.99"/>
</linearGradient>
<linearGradient id="paint9_linear" x1="3342.51" y1="2812.01" x2="3343.91" y2="2504.19" gradientUnits="userSpaceOnUse">
<stop stop-opacity="0"/>
<stop offset="0.99"/>
</linearGradient>
<linearGradient id="paint10_linear" x1="4775.33" y1="2252.36" x2="4781.06" y2="2735.58" gradientUnits="userSpaceOnUse">
<stop stop-opacity="0"/>
<stop offset="0.99"/>
</linearGradient>
<linearGradient id="paint11_linear" x1="3934.88" y1="1499.9" x2="3934.15" y2="1265.52" gradientUnits="userSpaceOnUse">
<stop stop-opacity="0"/>
<stop offset="0.99"/>
</linearGradient>
<linearGradient id="paint12_linear" x1="-77919" y1="4462.21" x2="-77915.7" y2="5270.55" gradientUnits="userSpaceOnUse">
<stop stop-opacity="0"/>
<stop offset="0.99"/>
</linearGradient>
<linearGradient id="paint13_linear" x1="-90536.9" y1="5251.36" x2="-90530.2" y2="5965.98" gradientUnits="userSpaceOnUse">
<stop stop-opacity="0"/>
<stop offset="0.99"/>
</linearGradient>
<linearGradient id="paint14_linear" x1="-77472.6" y1="3675.76" x2="-69091" y2="1556.61" gradientUnits="userSpaceOnUse">
<stop stop-opacity="0"/>
<stop offset="0.99"/>
</linearGradient>
<linearGradient id="paint15_linear" x1="-61724" y1="2687.47" x2="-61723.2" y2="2512" gradientUnits="userSpaceOnUse">
<stop stop-opacity="0"/>
<stop offset="0.99"/>
</linearGradient>
<linearGradient id="paint16_linear" x1="-77624.8" y1="2290.71" x2="-77626.7" y2="2994.54" gradientUnits="userSpaceOnUse">
<stop stop-opacity="0"/>
<stop offset="0.99"/>
</linearGradient>
<linearGradient id="paint17_linear" x1="-60263.2" y1="2811.67" x2="-60264" y2="2495.77" gradientUnits="userSpaceOnUse">
<stop stop-opacity="0"/>
<stop offset="0.99"/>
</linearGradient>
<linearGradient id="paint18_linear" x1="-36327.8" y1="2811.07" x2="-36329.2" y2="2503.26" gradientUnits="userSpaceOnUse">
<stop stop-opacity="0"/>
<stop offset="0.99"/>
</linearGradient>
<linearGradient id="paint19_linear" x1="-59557.6" y1="2251.44" x2="-59563.3" y2="2734.66" gradientUnits="userSpaceOnUse">
<stop stop-opacity="0"/>
<stop offset="0.99"/>
</linearGradient>
<linearGradient id="paint20_linear" x1="-47695.3" y1="1498.96" x2="-47694.6" y2="1264.58" gradientUnits="userSpaceOnUse">
<stop stop-opacity="0"/>
<stop offset="0.99"/>
</linearGradient>
<linearGradient id="paint21_linear" x1="102.138" y1="81.725" x2="110.127" y2="81.725" gradientUnits="userSpaceOnUse">
<stop stop-color="#ECC4D7"/>
<stop offset="0.42" stop-color="#EFD4D1"/>
<stop offset="1" stop-color="#F2EAC9"/>
</linearGradient>
<linearGradient id="paint22_linear" x1="3903.34" y1="2316.32" x2="1442.56" y2="5459.85" gradientUnits="userSpaceOnUse">
<stop stop-opacity="0"/>
<stop offset="0.99"/>
</linearGradient>
<linearGradient id="paint23_linear" x1="3243.98" y1="4138.22" x2="7382.63" y2="4850.11" gradientUnits="userSpaceOnUse">
<stop stop-opacity="0"/>
<stop offset="0.99"/>
</linearGradient>
<linearGradient id="paint24_linear" x1="91.8018" y1="21.4946" x2="93.0279" y2="45.0971" gradientUnits="userSpaceOnUse">
<stop stop-color="white" stop-opacity="0"/>
<stop offset="0.99" stop-color="white"/>
</linearGradient>
<linearGradient id="paint25_linear" x1="4239.54" y1="2601.92" x2="1689.66" y2="3396.98" gradientUnits="userSpaceOnUse">
<stop stop-opacity="0"/>
<stop offset="0.99"/>
</linearGradient>
<linearGradient id="paint26_linear" x1="2060.63" y1="1459.2" x2="2118.62" y2="1460.54" gradientUnits="userSpaceOnUse">
<stop stop-color="#ECC4D7"/>
<stop offset="0.42" stop-color="#EFD4D1"/>
<stop offset="1" stop-color="#F2EAC9"/>
</linearGradient>
<linearGradient id="paint27_linear" x1="2164.68" y1="1284.99" x2="2299.04" y2="1284.99" gradientUnits="userSpaceOnUse">
<stop stop-color="#ECC4D7"/>
<stop offset="0.42" stop-color="#EFD4D1"/>
<stop offset="1" stop-color="#F2EAC9"/>
</linearGradient>
<linearGradient id="paint28_linear" x1="4179.21" y1="263.825" x2="4958.48" y2="263.825" gradientUnits="userSpaceOnUse">
<stop stop-color="white" stop-opacity="0"/>
<stop offset="0.99" stop-color="white"/>
</linearGradient>
<linearGradient id="paint29_linear" x1="3051.53" y1="144.866" x2="3052.31" y2="187.477" gradientUnits="userSpaceOnUse">
<stop stop-color="white" stop-opacity="0"/>
<stop offset="0.99" stop-color="white"/>
</linearGradient>
<linearGradient id="paint30_linear" x1="3880.03" y1="198.458" x2="3880.57" y2="302.839" gradientUnits="userSpaceOnUse">
<stop stop-color="white" stop-opacity="0"/>
<stop offset="0.99" stop-color="white"/>
</linearGradient>
<linearGradient id="paint31_linear" x1="-83473.4" y1="4515.93" x2="-83470.1" y2="5324.37" gradientUnits="userSpaceOnUse">
<stop stop-opacity="0"/>
<stop offset="0.99"/>
</linearGradient>
<linearGradient id="paint32_linear" x1="-96974.3" y1="5317.76" x2="-96967.6" y2="6032.5" gradientUnits="userSpaceOnUse">
<stop stop-opacity="0"/>
<stop offset="0.99"/>
</linearGradient>
<linearGradient id="paint33_linear" x1="-82963.4" y1="3724.68" x2="-74582.9" y2="1603.3" gradientUnits="userSpaceOnUse">
<stop stop-opacity="0"/>
<stop offset="0.99"/>
</linearGradient>
<linearGradient id="paint34_linear" x1="-66115.5" y1="2724.69" x2="-66114.6" y2="2549.22" gradientUnits="userSpaceOnUse">
<stop stop-opacity="0"/>
<stop offset="0.99"/>
</linearGradient>
<linearGradient id="paint35_linear" x1="5677.7" y1="2642.08" x2="4454.6" y2="6981.92" gradientUnits="userSpaceOnUse">
<stop stop-opacity="0"/>
<stop offset="0.99"/>
</linearGradient>
</defs>
</svg>
