<svg width="55" height="55" viewBox="0 0 55 55" fill="none" xmlns="http://www.w3.org/2000/svg">
<rect x="0.5" y="0.5" width="54" height="54" rx="27" stroke="#6FD4D1"/>
<path d="M24.77 31H20.23C20.0974 31 19.9702 30.9473 19.8764 30.8536C19.7827 30.7598 19.73 30.6326 19.73 30.5C19.73 30.3674 19.7827 30.2402 19.8764 30.1464C19.9702 30.0527 20.0974 30 20.23 30H24.77C24.9026 30 25.0298 30.0527 25.1236 30.1464C25.2173 30.2402 25.27 30.3674 25.27 30.5C25.27 30.6326 25.2173 30.7598 25.1236 30.8536C25.0298 30.9473 24.9026 31 24.77 31Z" fill="#6FD4D1"/>
<path d="M32.77 31H28.23C28.0974 31 27.9702 30.9473 27.8764 30.8536C27.7827 30.7598 27.73 30.6326 27.73 30.5C27.73 30.3674 27.7827 30.2402 27.8764 30.1464C27.9702 30.0527 28.0974 30 28.23 30H32.77C32.9026 30 33.0298 30.0527 33.1236 30.1464C33.2173 30.2402 33.27 30.3674 33.27 30.5C33.27 30.6326 33.2173 30.7598 33.1236 30.8536C33.0298 30.9473 32.9026 31 32.77 31Z" fill="#6FD4D1"/>
<path d="M40.5 31H36.23C36.0974 31 35.9702 30.9473 35.8764 30.8536C35.7827 30.7598 35.73 30.6326 35.73 30.5C35.73 30.3674 35.7827 30.2402 35.8764 30.1464C35.9702 30.0527 36.0974 30 36.23 30H40V16H14V30H16.77C16.9026 30 17.0298 30.0527 17.1236 30.1464C17.2173 30.2402 17.27 30.3674 17.27 30.5C17.27 30.6326 17.2173 30.7598 17.1236 30.8536C17.0298 30.9473 16.9026 31 16.77 31H13.5C13.3674 31 13.2402 30.9473 13.1464 30.8536C13.0527 30.7598 13 30.6326 13 30.5V15.5C13 15.3674 13.0527 15.2402 13.1464 15.1464C13.2402 15.0527 13.3674 15 13.5 15H40.5C40.6326 15 40.7598 15.0527 40.8536 15.1464C40.9473 15.2402 41 15.3674 41 15.5V30.5C41 30.6326 40.9473 30.7598 40.8536 30.8536C40.7598 30.9473 40.6326 31 40.5 31Z" fill="#6FD4D1"/>
<path d="M21.5 37H15.5C15.3674 37 15.2402 36.9473 15.1464 36.8536C15.0527 36.7598 15 36.6326 15 36.5V35.5C15 34.5717 15.3687 33.6815 16.0251 33.0251C16.6815 32.3687 17.5717 32 18.5 32C19.4266 32.0053 20.3138 32.3757 20.9691 33.0309C21.6243 33.6862 21.9948 34.5734 22 35.5V36.5C22 36.6326 21.9473 36.7598 21.8536 36.8536C21.7598 36.9473 21.6326 37 21.5 37ZM16 36H21V35.5C21 34.837 20.7366 34.2011 20.2678 33.7322C19.7989 33.2634 19.163 33 18.5 33C17.837 33 17.2011 33.2634 16.7322 33.7322C16.2634 34.2011 16 34.837 16 35.5V36Z" fill="#6FD4D1"/>
<path d="M18.5 32C18.0055 32 17.5222 31.8534 17.1111 31.5787C16.7 31.304 16.3795 30.9135 16.1903 30.4567C16.0011 29.9999 15.9516 29.4972 16.048 29.0123C16.1445 28.5273 16.3826 28.0819 16.7322 27.7322C17.0819 27.3826 17.5273 27.1445 18.0123 27.048C18.4972 26.9516 18.9999 27.0011 19.4567 27.1903C19.9135 27.3795 20.304 27.7 20.5787 28.1111C20.8534 28.5222 21 29.0055 21 29.5C21 30.163 20.7366 30.7989 20.2678 31.2678C19.7989 31.7366 19.163 32 18.5 32ZM18.5 28C18.2033 28 17.9133 28.088 17.6666 28.2528C17.42 28.4176 17.2277 28.6519 17.1142 28.926C17.0007 29.2001 16.9709 29.5017 17.0288 29.7926C17.0867 30.0836 17.2296 30.3509 17.4393 30.5607C17.6491 30.7704 17.9164 30.9133 18.2074 30.9712C18.4983 31.0291 18.7999 30.9994 19.074 30.8858C19.3481 30.7723 19.5824 30.58 19.7472 30.3334C19.912 30.0867 20 29.7967 20 29.5C20 29.1022 19.842 28.7206 19.5607 28.4393C19.2794 28.158 18.8978 28 18.5 28Z" fill="#6FD4D1"/>
<path d="M29.5 37H23.5C23.3674 37 23.2402 36.9473 23.1464 36.8536C23.0527 36.7598 23 36.6326 23 36.5V35.5C23 34.5717 23.3687 33.6815 24.0251 33.0251C24.6815 32.3687 25.5717 32 26.5 32C27.4266 32.0053 28.3138 32.3757 28.9691 33.0309C29.6243 33.6862 29.9948 34.5734 30 35.5V36.5C30 36.6326 29.9473 36.7598 29.8536 36.8536C29.7598 36.9473 29.6326 37 29.5 37ZM24 36H29V35.5C29 34.837 28.7366 34.2011 28.2678 33.7322C27.7989 33.2634 27.163 33 26.5 33C25.837 33 25.2011 33.2634 24.7322 33.7322C24.2634 34.2011 24 34.837 24 35.5V36Z" fill="#6FD4D1"/>
<path d="M26.5 32C26.0055 32 25.5222 31.8534 25.1111 31.5787C24.7 31.304 24.3795 30.9135 24.1903 30.4567C24.0011 29.9999 23.9516 29.4972 24.048 29.0123C24.1445 28.5273 24.3826 28.0819 24.7322 27.7322C25.0819 27.3826 25.5273 27.1445 26.0123 27.048C26.4972 26.9516 26.9999 27.0011 27.4567 27.1903C27.9135 27.3795 28.304 27.7 28.5787 28.1111C28.8534 28.5222 29 29.0055 29 29.5C29 30.163 28.7366 30.7989 28.2678 31.2678C27.7989 31.7366 27.163 32 26.5 32ZM26.5 28C26.2033 28 25.9133 28.088 25.6666 28.2528C25.42 28.4176 25.2277 28.6519 25.1142 28.926C25.0007 29.2001 24.9709 29.5017 25.0288 29.7926C25.0867 30.0836 25.2296 30.3509 25.4393 30.5607C25.6491 30.7704 25.9164 30.9133 26.2074 30.9712C26.4983 31.0291 26.7999 30.9994 27.074 30.8858C27.3481 30.7723 27.5824 30.58 27.7472 30.3334C27.912 30.0867 28 29.7967 28 29.5C28 29.1022 27.842 28.7206 27.5607 28.4393C27.2794 28.158 26.8978 28 26.5 28Z" fill="#6FD4D1"/>
<path d="M37.5 37H31.5C31.3674 37 31.2402 36.9473 31.1464 36.8536C31.0527 36.7598 31 36.6326 31 36.5V35.5C31 34.5717 31.3687 33.6815 32.0251 33.0251C32.6815 32.3687 33.5717 32 34.5 32C35.4266 32.0053 36.3138 32.3757 36.9691 33.0309C37.6243 33.6862 37.9948 34.5734 38 35.5V36.5C38 36.6326 37.9473 36.7598 37.8536 36.8536C37.7598 36.9473 37.6326 37 37.5 37ZM32 36H37V35.5C37 34.837 36.7366 34.2011 36.2678 33.7322C35.7989 33.2634 35.163 33 34.5 33C33.837 33 33.2011 33.2634 32.7322 33.7322C32.2634 34.2011 32 34.837 32 35.5V36Z" fill="#6FD4D1"/>
<path d="M34.5 32C34.0055 32 33.5222 31.8534 33.1111 31.5787C32.7 31.304 32.3795 30.9135 32.1903 30.4567C32.0011 29.9999 31.9516 29.4972 32.048 29.0123C32.1445 28.5273 32.3826 28.0819 32.7322 27.7322C33.0819 27.3826 33.5273 27.1445 34.0123 27.048C34.4972 26.9516 34.9999 27.0011 35.4567 27.1903C35.9135 27.3795 36.304 27.7 36.5787 28.1111C36.8534 28.5222 37 29.0055 37 29.5C37 30.163 36.7366 30.7989 36.2678 31.2678C35.7989 31.7366 35.163 32 34.5 32ZM34.5 28C34.2033 28 33.9133 28.088 33.6666 28.2528C33.42 28.4176 33.2277 28.6519 33.1142 28.926C33.0006 29.2001 32.9709 29.5017 33.0288 29.7926C33.0867 30.0836 33.2296 30.3509 33.4393 30.5607C33.6491 30.7704 33.9164 30.9133 34.2074 30.9712C34.4983 31.0291 34.7999 30.9994 35.074 30.8858C35.3481 30.7723 35.5824 30.58 35.7472 30.3334C35.912 30.0867 36 29.7967 36 29.5C36 29.1022 35.842 28.7206 35.5607 28.4393C35.2794 28.158 34.8978 28 34.5 28Z" fill="#6FD4D1"/>
<path d="M40.5 40H13.5C13.3674 40 13.2402 39.9473 13.1464 39.8536C13.0527 39.7598 13 39.6326 13 39.5V36.5C13 36.3674 13.0527 36.2402 13.1464 36.1464C13.2402 36.0527 13.3674 36 13.5 36H40.5C40.6326 36 40.7598 36.0527 40.8536 36.1464C40.9473 36.2402 41 36.3674 41 36.5V39.5C41 39.6326 40.9473 39.7598 40.8536 39.8536C40.7598 39.9473 40.6326 40 40.5 40ZM14 39H40V37H14V39Z" fill="#6FD4D1"/>
<path d="M30.5 25H16.5C16.3674 25 16.2402 24.9473 16.1464 24.8536C16.0527 24.7598 16 24.6326 16 24.5V18.5C16 18.3674 16.0527 18.2402 16.1464 18.1464C16.2402 18.0527 16.3674 18 16.5 18H30.5C30.6326 18 30.7598 18.0527 30.8536 18.1464C30.9473 18.2402 31 18.3674 31 18.5V24.5C31 24.6326 30.9473 24.7598 30.8536 24.8536C30.7598 24.9473 30.6326 25 30.5 25ZM17 24H30V19H17V24Z" fill="#6FD4D1"/>
<path d="M37.5 21H32.5C32.3674 21 32.2402 20.9473 32.1464 20.8536C32.0527 20.7598 32 20.6326 32 20.5V18.5C32 18.3674 32.0527 18.2402 32.1464 18.1464C32.2402 18.0527 32.3674 18 32.5 18H37.5C37.6326 18 37.7598 18.0527 37.8536 18.1464C37.9473 18.2402 38 18.3674 38 18.5V20.5C38 20.6326 37.9473 20.7598 37.8536 20.8536C37.7598 20.9473 37.6326 21 37.5 21ZM33 20H37V19H33V20Z" fill="#6FD4D1"/>
</svg>
